<mxfile host="app.diagrams.net" modified="2023-04-16T10:16:36.629Z" agent="Mozilla/5.0 (Windows NT 10.0; Win64; x64) AppleWebKit/537.36 (KHTML, like Gecko) Chrome/111.0.0.0 Safari/537.36" version="21.1.8" etag="lH_4drXjcQOXrec2t88Y" type="github">
  <diagram name="Page-1" id="m1_SxWopCndo4G_Ov88M">
    <mxGraphModel>
      <root>
        <mxCell id="0" />
        <mxCell id="1" parent="0" />
      </root>
    </mxGraphModel>
  </diagram>
</mxfile>
